<?xml version="1.0" standalone="no"?>
<!DOCTYPE svg PUBLIC "-//W3C//DTD SVG 20010904//EN"
 "http://www.w3.org/TR/2001/REC-SVG-20010904/DTD/svg10.dtd">
<svg version="1.0" xmlns="http://www.w3.org/2000/svg"
 width="1280.000000pt" height="640.000000pt" viewBox="0 0 1280.000000 640.000000"
 preserveAspectRatio="xMidYMid meet">

<g transform="translate(0.000000,640.000000) scale(0.100000,-0.100000)"
fill="#000000" stroke="none">
<path d="M4800 4896 c-155 -33 -270 -92 -381 -194 -171 -158 -253 -374 -204
-540 59 -199 313 -277 460 -141 81 74 97 193 35 262 -27 30 -33 32 -97 32 -49
0 -75 -5 -93 -17 -24 -18 -24 -18 43 -18 59 0 71 -3 92 -25 54 -53 18 -153
-70 -195 -127 -62 -275 8 -306 144 -27 121 29 256 160 386 96 96 187 150 292
175 75 17 340 20 436 5 350 -57 663 -271 876 -600 85 -131 182 -340 158 -340
-5 0 -49 34 -98 76 -213 183 -374 247 -623 248 -111 0 -228 -10 -218 -19 1 -2
55 -8 118 -14 259 -26 410 -74 550 -176 64 -47 164 -151 211 -220 90 -132 184
-358 224 -539 11 -49 21 -74 25 -65 4 8 22 66 40 129 83 294 175 473 316 613
166 165 378 245 659 250 74 1 130 5 126 9 -18 19 -135 30 -271 25 -261 -9
-407 -71 -626 -264 -39 -35 -74 -63 -78 -63 -8 0 35 113 73 188 108 213 276
420 446 547 123 92 306 171 490 211 120 26 355 24 458 -4 191 -52 340 -171
423 -337 80 -162 44 -309 -90 -371 -103 -48 -214 -15 -262 78 -45 86 15 168
113 154 49 -6 57 6 14 23 -41 18 -103 16 -140 -4 -36 -18 -70 -81 -71 -129 -1
-95 68 -183 164 -211 147 -43 280 14 346 148 79 162 28 370 -134 545 -158 169
-358 251 -611 252 -315 0 -643 -131 -860 -346 -157 -154 -255 -309 -391 -619
-29 -66 -55 -113 -57 -105 -3 8 -8 83 -12 165 -6 164 -15 208 -51 251 l-24 29
-25 -28 c-33 -37 -43 -81 -50 -227 -6 -136 -13 -195 -22 -187 -3 3 -27 56 -53
117 -119 272 -227 438 -390 600 -171 170 -320 254 -558 317 -121 31 -375 41
-482 19z"/>
<path d="M6337 4636 c-74 -27 -107 -76 -107 -158 0 -68 27 -113 83 -138 55
-26 93 -25 147 3 84 42 114 131 71 215 -25 49 -47 68 -96 81 -49 13 -51 13
-98 -3z"/>
<path d="M5505 3692 c-189 -57 -311 -172 -378 -357 -25 -69 -53 -222 -44 -232
3 -3 63 30 134 73 117 71 223 122 223 108 0 -3 -25 -37 -55 -76 -72 -92 -106
-166 -155 -336 -66 -230 -111 -323 -196 -409 -80 -80 -170 -103 -243 -62 -122
68 -120 249 3 249 48 0 96 -39 96 -79 0 -14 4 -31 8 -38 10 -16 55 49 55 81 0
58 -75 117 -170 132 -157 25 -243 -168 -152 -342 88 -166 297 -194 507 -67
119 72 196 163 307 363 182 328 324 435 652 490 40 6 76 17 79 22 9 14 -23 39
-116 91 -41 23 -68 43 -60 45 8 1 57 -1 108 -6 62 -5 92 -4 92 3 0 20 -51 119
-86 167 -46 61 -142 130 -230 165 -92 35 -285 43 -379 15z"/>
<path d="M6908 3686 c-97 -29 -177 -77 -238 -144 -47 -51 -91 -128 -106 -186
l-7 -29 54 6 c30 4 75 10 102 13 53 8 63 -6 20 -25 -42 -19 -163 -101 -163
-111 0 -4 24 -11 53 -15 136 -18 283 -66 383 -126 117 -71 186 -160 354 -450
118 -205 255 -315 443 -356 65 -14 85 -14 132 -4 113 25 200 117 225 237 25
120 -32 227 -132 249 -50 11 -138 -22 -186 -71 -49 -49 -51 -70 -9 -125 l21
-29 12 41 c19 62 49 89 100 89 35 0 47 -5 69 -32 22 -26 26 -39 23 -73 -22
-191 -209 -221 -358 -58 -67 74 -109 165 -170 373 -54 184 -90 263 -167 362
-25 33 -43 61 -41 63 7 7 119 -49 229 -115 57 -35 108 -65 113 -68 12 -7 -1
123 -20 196 -36 140 -132 266 -256 336 -137 76 -327 97 -480 52z"/>
<path d="M8243 3620 c-154 -22 -282 -157 -291 -307 -5 -76 14 -136 64 -204 90
-123 222 -131 274 -16 29 63 26 112 -9 148 -28 28 -44 32 -121 33 -34 1 -35 2
-34 38 2 52 43 111 96 137 64 30 175 29 243 -3 104 -48 197 -159 309 -368 26
-49 52 -88 57 -88 6 0 20 23 33 52 l23 52 60 -90 c64 -94 147 -180 202 -209
143 -73 321 -79 476 -14 41 18 73 34 71 36 -3 3 -70 9 -150 14 -112 6 -162 14
-215 32 -123 43 -262 161 -317 269 -13 26 -24 52 -24 57 0 6 18 20 40 31 46
23 69 62 77 129 l5 48 -108 6 c-131 7 -179 21 -385 115 -211 95 -282 115 -376
102z"/>
<path d="M4360 3597 c-36 -13 -111 -47 -168 -76 -176 -89 -286 -121 -418 -121
-86 0 -99 -11 -89 -69 9 -52 33 -82 89 -112 25 -13 46 -27 46 -30 0 -4 -22
-40 -48 -80 -57 -87 -153 -179 -224 -215 -73 -37 -190 -64 -277 -64 -96 0
-153 -9 -148 -24 7 -20 168 -68 248 -73 194 -14 366 88 494 290 46 73 50 77
58 55 23 -60 37 -88 46 -88 5 0 35 48 65 106 31 59 71 127 88 153 56 81 142
159 213 192 58 28 73 31 138 27 42 -2 88 -12 110 -22 47 -23 87 -80 94 -135
l6 -41 -56 0 c-31 0 -67 -4 -81 -10 -31 -11 -56 -58 -56 -103 0 -44 47 -118
94 -146 33 -21 40 -22 68 -10 107 44 188 163 196 286 4 53 0 72 -25 126 -40
84 -80 127 -155 167 -56 30 -73 34 -153 37 -75 3 -101 0 -155 -20z"/>
<path d="M3410 3259 c-43 -23 -82 -24 -121 -3 -17 8 -33 13 -35 11 -3 -3 0
-24 5 -48 6 -24 13 -66 16 -92 5 -38 10 -47 22 -43 8 3 19 6 24 6 15 0 89 72
105 102 24 46 34 77 26 82 -4 2 -23 -4 -42 -15z"/>
<path d="M9350 3252 c0 -44 57 -121 112 -151 25 -14 50 -22 54 -18 5 4 11 40
15 80 4 40 11 81 15 91 6 16 4 18 -12 11 -65 -27 -94 -29 -132 -10 -20 10 -40
21 -44 23 -5 2 -8 -10 -8 -26z"/>
<path d="M6193 3121 c-181 -65 -350 -212 -405 -351 -17 -44 -22 -76 -22 -155
0 -116 20 -178 88 -277 39 -57 111 -127 120 -117 3 3 10 36 16 74 11 69 46
165 60 165 5 0 11 -24 15 -52 34 -273 62 -354 199 -572 45 -72 70 -121 104
-206 9 -24 12 -21 42 45 18 39 70 133 116 210 99 167 136 270 161 448 10 70
21 127 24 127 18 0 53 -111 57 -183 l5 -79 49 49 c136 133 184 240 176 392 -4
72 -11 100 -38 157 -46 96 -165 214 -275 271 -83 43 -188 78 -204 69 -22 -14
-34 -118 -41 -371 -5 -213 -10 -278 -23 -307 -19 -45 -32 -48 -51 -10 -23 45
-35 134 -46 357 -15 307 -20 336 -59 335 -9 -1 -39 -9 -68 -19z"/>
<path d="M5860 2994 c-117 -92 -167 -157 -290 -379 -270 -488 -473 -709 -745
-815 -130 -50 -129 -50 -117 -62 13 -13 137 4 235 33 38 11 71 18 73 16 9 -9
-71 -64 -143 -101 -121 -60 -210 -81 -348 -80 -171 1 -262 38 -367 147 -86 90
-150 255 -133 346 23 126 124 220 236 221 79 0 129 -57 129 -148 0 -63 -27
-92 -88 -92 -23 0 -42 -4 -42 -9 0 -12 74 -41 103 -41 105 0 146 225 59 324
-33 37 -112 66 -184 66 -124 0 -240 -86 -283 -210 -58 -165 5 -407 142 -546
112 -114 254 -168 438 -167 236 2 456 96 642 276 121 117 212 265 388 637 122
256 188 375 281 513 41 59 70 107 66 106 -4 0 -27 -16 -52 -35z"/>
<path d="M6860 3012 c0 -6 33 -63 73 -129 116 -185 189 -323 286 -531 121
-260 209 -409 310 -526 255 -295 695 -414 991 -268 83 40 198 160 244 252 117
241 68 487 -116 579 -118 60 -264 32 -326 -62 -38 -58 -43 -163 -10 -227 31
-61 64 -76 135 -61 55 13 63 31 13 31 -39 0 -88 43 -96 85 -8 42 24 117 60
140 63 41 148 28 220 -35 82 -72 108 -160 82 -274 -45 -193 -197 -343 -381
-377 -72 -13 -227 -6 -305 15 -80 22 -322 148 -308 161 2 2 37 -5 78 -15 122
-31 215 -44 236 -32 18 10 18 11 -1 18 -246 88 -390 185 -533 358 -93 113
-156 210 -296 455 -140 243 -181 305 -245 368 -50 50 -111 91 -111 75z"/>
<path d="M1378 2768 c-2 -18 2 -58 9 -88 18 -82 12 -85 -150 -85 -118 1 -140
4 -211 28 -43 15 -81 26 -83 23 -8 -8 28 -81 54 -108 35 -36 103 -64 193 -77
41 -7 77 -14 80 -17 9 -10 -69 -71 -200 -158 -251 -167 -481 -286 -596 -307
-120 -23 -260 13 -325 82 -32 35 -39 94 -16 138 17 34 30 31 38 -8 16 -78 103
-114 169 -69 42 28 60 61 60 108 0 81 -75 140 -180 140 -225 0 -297 -271 -115
-439 68 -63 115 -81 212 -81 203 0 444 95 728 290 354 242 438 296 540 345
217 105 344 135 610 142 153 4 203 2 258 -11 128 -30 233 -101 273 -185 26
-53 31 -213 10 -279 -67 -201 -362 -279 -522 -139 -58 51 -84 102 -84 167 0
44 4 56 31 82 27 28 34 30 75 24 64 -8 67 -11 59 -66 -16 -116 89 -164 153
-70 28 42 28 72 -2 136 -27 59 -82 107 -145 129 -65 22 -100 19 -169 -16 -90
-44 -119 -92 -130 -212 l-7 -67 -60 28 c-111 53 -164 66 -260 67 -77 0 -96 -4
-132 -24 -79 -45 -94 -133 -32 -185 55 -46 107 -31 167 50 28 37 45 50 67 52
34 3 154 -52 282 -129 110 -67 236 -124 301 -138 230 -48 457 50 544 234 80
172 27 406 -127 561 -116 117 -238 154 -503 154 -186 0 -307 -15 -510 -61
-185 -41 -222 -38 -296 24 l-55 47 -3 -32z"/>
<path d="M10390 2789 c-87 -13 -198 -52 -259 -90 -173 -106 -276 -359 -226
-552 22 -84 50 -134 111 -194 179 -179 454 -163 796 47 143 89 247 131 273
112 6 -4 23 -28 38 -53 30 -54 64 -79 105 -79 66 0 118 86 92 150 -43 104
-244 119 -428 30 -91 -44 -88 -45 -95 41 -12 127 -112 229 -228 229 -81 0
-178 -65 -215 -144 -29 -62 -30 -101 -4 -143 31 -51 97 -56 142 -11 18 18 20
28 14 80 -5 56 -5 59 20 68 46 18 93 12 119 -15 20 -19 25 -34 25 -76 0 -133
-125 -249 -270 -249 -217 0 -350 131 -350 344 0 136 39 212 142 273 97 59 190
78 378 77 216 0 366 -28 544 -99 102 -41 185 -90 465 -277 485 -324 668 -408
891 -408 112 0 154 16 225 81 142 131 137 354 -9 420 -84 38 -220 15 -259 -44
-37 -57 -29 -133 19 -178 53 -50 163 -17 182 53 10 41 29 47 42 13 19 -50 12
-92 -22 -130 -83 -95 -259 -122 -409 -61 -191 76 -714 400 -714 441 0 6 35 13
77 17 94 8 168 39 209 85 30 35 54 82 45 90 -2 3 -50 -7 -107 -21 -109 -28
-263 -35 -315 -16 l-27 10 8 81 c3 45 9 89 13 97 4 12 -2 10 -24 -6 -127 -98
-115 -96 -326 -52 -79 16 -186 37 -238 45 -119 20 -364 27 -450 14z"/>
<path d="M3132 2704 c-129 -64 -202 -225 -202 -444 0 -215 68 -365 180 -399
45 -13 69 -5 94 31 47 66 -17 174 -82 139 -38 -20 -50 -12 -73 47 -18 47 -22
78 -23 177 -1 155 23 233 93 306 26 27 52 49 58 49 6 0 27 -13 48 -30 58 -46
94 -39 109 22 9 39 -8 73 -51 102 -48 33 -86 33 -151 0z"/>
<path d="M9534 2716 c-58 -26 -80 -89 -52 -151 15 -33 36 -32 86 5 23 17 51
30 61 30 29 0 86 -73 117 -149 25 -59 27 -78 27 -181 0 -111 -19 -220 -41
-242 -6 -6 -25 -5 -50 2 -52 13 -76 1 -97 -52 -16 -41 -12 -62 18 -95 48 -54
150 -10 206 89 41 71 61 166 61 286 0 237 -101 431 -241 461 -60 13 -57 13
-95 -3z"/>
</g>
</svg>
